# xmcd CD database file
#
# Track frame offsets:
#	150
#	23718
#	48864
#	75477
#	90454
#	105505
#	119281
#	159782
#	183404
#	197336
#	210888
#	222889
#	236663
#	250624
#	264746
#	288135
#	312502
#
# Disc length: 4409 seconds
#
# Revision: 0
# Processed by: cddbd v1.5.2PL0 Copyright (c) Steve Scherf et al.
# Submitted via: CDex 1.70beta2
#
DISCID=cf113711
DTITLE=Various Artist - Les Trésors Du Jazz 1954 (1)
DYEAR=2006
DGENRE=Jazz
TTITLE0=Duke Ellington, One O'Clock Jump
TTITLE1=Duke Ellington, Happy Go Lucky Local
TTITLE2=Bengt Hallberg, Blue Grapes
TTITLE3=Jimmy Raney, Pennies From Heaven
TTITLE4=Paul Gonsalves, Don't Blame Me
TTITLE5=Chet Baker, There Will Never Be Another You
TTITLE6=Art Blakey Quintet, Split Kick
TTITLE7=Art Blakey Quintet, Once In A While
TTITLE8=Howard Rumsey, Aquarium
TTITLE9=Herbie Harper, Herbstone
TTITLE10=Junior Mance, Hot Springs
TTITLE11=Junior Mance, 111 East Ontario
TTITLE12=Stan Kenton, Fearless Finlay
TTITLE13=Stan Kenton, Kingfish
TTITLE14=The Modern Swedes, On With A Dance
TTITLE15=Miles Davis, Well You Needn't
TTITLE16=Miles Davis, It Never Entered My Mind
EXTD=YEAR: 2006
EXTT0=
EXTT1=
EXTT2=
EXTT3=
EXTT4=
EXTT5=
EXTT6=
EXTT7=
EXTT8=
EXTT9=
EXTT10=
EXTT11=
EXTT12=
EXTT13=
EXTT14=
EXTT15=
EXTT16=
PLAYORDER=
